<?xml version="1.0" encoding="utf-8"?>
<svg width="410" height="404" viewBox="0 0 410 404" fill="none" xmlns="http://www.w3.org/2000/svg" xmlns:bx="https://boxy-svg.com">
  <path d="M 396.258 9.27 C 414.353 28.735 405.589 358.827 393.455 392.456 C 380.765 414.989 30.144 397.759 15.16 387.227 C 10.658 331.399 5.577 47.56 13.278 9.27 C 108.708 -12.411 396.258 9.27 396.258 9.27 Z" style="fill: rgb(1, 130, 129);"/>
  <defs>
    <bx:grid x="0" y="0" width="81.252" height="81.252"/>
  </defs>
  <g style="visibility: hidden;">
    <path d="M 332.388 242.278 C 325.188 242.278 319.064 241.028 314.018 238.528 C 308.964 236.028 305.114 232.655 302.468 228.408 C 299.814 224.155 298.488 219.528 298.488 214.528 C 298.488 209.728 299.614 205.528 301.868 201.928 C 304.114 198.328 307.038 195.155 310.638 192.408 C 314.238 189.655 318.038 187.278 322.038 185.278 L 322.038 184.978 C 316.638 181.678 312.088 177.955 308.388 173.808 C 304.688 169.655 302.838 164.328 302.838 157.828 C 302.838 152.428 304.214 147.555 306.968 143.208 C 309.714 138.855 313.564 135.378 318.518 132.778 C 323.464 130.178 329.288 128.878 335.988 128.878 C 342.488 128.878 347.988 130.128 352.488 132.628 C 356.988 135.128 360.388 138.301 362.688 142.148 C 364.988 146.001 366.138 150.078 366.138 154.378 C 366.138 158.778 365.088 162.678 362.988 166.078 C 360.888 169.478 358.288 172.428 355.188 174.928 C 352.088 177.428 349.038 179.528 346.038 181.228 L 346.038 181.528 C 350.138 183.828 354.011 186.278 357.658 188.878 C 361.311 191.478 364.288 194.578 366.588 198.178 C 368.888 201.778 370.038 206.128 370.038 211.228 C 370.038 216.828 368.514 222.005 365.468 226.758 C 362.414 231.505 358.088 235.278 352.488 238.078 C 346.888 240.878 340.188 242.278 332.388 242.278 Z M 317.988 153.778 C 317.988 157.678 318.988 161.051 320.988 163.898 C 322.988 166.751 325.688 169.355 329.088 171.708 C 332.488 174.055 336.288 176.378 340.488 178.678 C 343.088 176.878 345.461 174.101 347.608 170.348 C 349.761 166.601 350.838 161.778 350.838 155.878 C 350.838 152.078 350.288 148.528 349.188 145.228 C 348.088 141.928 346.361 139.278 344.008 137.278 C 341.661 135.278 338.588 134.278 334.788 134.278 C 329.388 134.278 325.238 136.228 322.338 140.128 C 319.438 144.028 317.988 148.578 317.988 153.778 Z M 314.538 213.328 C 314.538 217.528 315.264 221.405 316.718 224.958 C 318.164 228.505 320.361 231.378 323.308 233.578 C 326.261 235.778 329.988 236.878 334.488 236.878 C 338.888 236.878 342.561 235.878 345.508 233.878 C 348.461 231.878 350.688 229.278 352.188 226.078 C 353.688 222.878 354.438 219.528 354.438 216.028 C 354.438 211.628 353.161 207.855 350.608 204.708 C 348.061 201.555 344.714 198.678 340.568 196.078 C 336.414 193.478 331.938 190.778 327.138 187.978 C 323.538 190.678 320.538 194.101 318.138 198.248 C 315.738 202.401 314.538 207.428 314.538 213.328 Z" style="fill: rgb(255, 255, 255); paint-order: fill; stroke: rgb(255, 255, 255); white-space: pre; text-decoration: underline solid rgba(0, 0, 0, 0.85);">
      <title>8</title>
    </path>
    <path d="M 277.452 190.826 C 277.452 199.326 276.179 207.753 273.632 216.106 C 271.079 224.453 267.179 232.053 261.932 238.906 C 256.679 245.753 249.929 251.226 241.682 255.326 C 233.429 259.426 223.602 261.476 212.202 261.476 C 211.902 261.476 211.202 261.449 210.102 261.396 C 209.002 261.349 207.952 261.276 206.952 261.176 C 206.852 260.276 206.825 259.403 206.872 258.556 C 206.925 257.703 207.102 256.776 207.402 255.776 C 208.302 255.876 208.979 255.926 209.432 255.926 C 209.879 255.926 210.152 255.926 210.252 255.926 C 219.852 255.926 228.029 254.026 234.782 250.226 C 241.529 246.426 246.952 241.099 251.052 234.246 C 255.152 227.399 258.002 219.326 259.602 210.026 C 255.202 212.726 251.075 214.526 247.222 215.426 C 243.375 216.326 239.852 216.776 236.652 216.776 C 229.452 216.776 223.452 215.126 218.652 211.826 C 213.852 208.526 210.252 204.276 207.852 199.076 C 205.452 193.876 204.252 188.426 204.252 182.726 C 204.252 176.426 205.625 170.476 208.372 164.876 C 211.125 159.276 215.175 154.749 220.522 151.296 C 225.875 147.849 232.402 146.126 240.102 146.126 C 244.902 146.126 249.525 146.926 253.972 148.526 C 258.425 150.126 262.425 152.676 265.972 156.176 C 269.525 159.676 272.329 164.276 274.382 169.976 C 276.429 175.676 277.452 182.626 277.452 190.826 Z M 260.952 191.576 C 260.952 181.876 259.902 174.126 257.802 168.326 C 255.702 162.526 252.975 158.326 249.622 155.726 C 246.275 153.126 242.802 151.826 239.202 151.826 C 235.602 151.826 232.452 153.026 229.752 155.426 C 227.052 157.826 224.975 161.026 223.522 165.026 C 222.075 169.026 221.352 173.476 221.352 178.376 C 221.352 183.276 222.152 188.076 223.752 192.776 C 225.352 197.476 227.802 201.326 231.102 204.326 C 234.402 207.326 238.602 208.826 243.702 208.826 C 245.802 208.826 248.275 208.453 251.122 207.706 C 253.975 206.953 257.052 205.476 260.352 203.276 C 260.752 199.476 260.952 195.576 260.952 191.576 Z" style="fill: rgb(255, 255, 255); paint-order: fill; stroke: rgb(255, 255, 255); white-space: pre; text-decoration: underline solid rgba(0, 0, 0, 0.85);">
      <title>9</title>
    </path>
    <path d="M 83.616 240.773 L 53.316 154.973 C 52.016 151.373 50.916 148.573 50.016 146.573 C 49.116 144.573 48.116 143.123 47.016 142.223 C 45.916 141.323 44.493 140.696 42.746 140.343 C 40.993 139.996 38.616 139.673 35.616 139.373 C 35.416 137.773 35.416 136.173 35.616 134.573 C 38.916 134.573 42.489 134.623 46.336 134.723 C 50.189 134.823 53.816 134.873 57.216 134.873 C 60.116 134.873 63.643 134.823 67.796 134.723 C 71.943 134.623 75.566 134.573 78.666 134.573 C 78.966 136.073 78.966 137.673 78.666 139.373 C 74.566 139.773 71.666 140.223 69.966 140.723 C 68.266 141.223 67.416 142.373 67.416 144.173 C 67.416 144.873 67.566 145.75 67.866 146.803 C 68.166 147.85 68.566 149.173 69.066 150.773 L 92.766 219.473 L 111.516 175.973 L 104.316 155.123 C 103.116 151.523 102.089 148.696 101.236 146.643 C 100.389 144.596 99.466 143.123 98.466 142.223 C 97.466 141.323 96.193 140.696 94.646 140.343 C 93.093 139.996 90.966 139.673 88.266 139.373 C 88.066 137.773 88.066 136.173 88.266 134.573 C 91.766 134.573 95.316 134.623 98.916 134.723 C 102.516 134.823 106.016 134.873 109.416 134.873 C 112.416 134.873 116.066 134.823 120.366 134.723 C 124.666 134.623 128.466 134.573 131.766 134.573 C 132.066 136.073 132.066 137.673 131.766 139.373 C 126.866 139.773 123.443 140.223 121.496 140.723 C 119.543 141.223 118.566 142.423 118.566 144.323 C 118.566 145.723 119.066 147.873 120.066 150.773 L 142.866 219.773 L 167.316 153.173 C 168.116 151.173 168.743 149.523 169.196 148.223 C 169.643 146.923 169.866 145.773 169.866 144.773 C 169.866 142.873 168.866 141.6 166.866 140.953 C 164.866 140.3 161.416 139.773 156.516 139.373 C 156.216 137.673 156.216 136.073 156.516 134.573 C 157.916 134.573 159.966 134.596 162.666 134.643 C 165.366 134.696 168.089 134.75 170.836 134.803 C 173.589 134.85 175.666 134.873 177.066 134.873 C 180.166 134.873 183.016 134.823 185.616 134.723 C 188.216 134.623 191.016 134.573 194.016 134.573 C 194.316 136.173 194.316 137.773 194.016 139.373 C 191.116 139.673 188.739 140.023 186.886 140.423 C 185.039 140.823 183.466 141.546 182.166 142.593 C 180.866 143.646 179.639 145.3 178.486 147.553 C 177.339 149.8 176.016 152.873 174.516 156.773 L 141.816 239.873 C 140.816 240.173 139.489 240.423 137.836 240.623 C 136.189 240.823 134.866 240.973 133.866 241.073 L 114.666 185.423 L 91.716 239.573 C 90.616 239.873 89.266 240.123 87.666 240.323 C 86.066 240.523 84.716 240.673 83.616 240.773 Z" style="fill: rgb(255, 255, 255); paint-order: fill; stroke: rgb(255, 255, 255); white-space: pre; text-decoration: underline solid rgba(0, 0, 0, 0.85);">
      <title>W</title>
    </path>
  </g>
  <g transform="matrix(1, 0, 0, 1, 0.000122, -22.165016)">
    <path d="M 136.1 318.79 L 69.268 129.544 C 66.401 121.603 63.975 115.427 61.99 111.016 C 60.004 106.605 57.799 103.406 55.372 101.421 C 52.946 99.436 49.808 98.053 45.954 97.275 C 42.088 96.509 36.845 95.797 30.228 95.135 C 29.787 91.606 29.787 88.077 30.228 84.548 C 37.507 84.548 45.387 84.658 53.873 84.879 C 62.371 85.099 70.371 85.21 77.87 85.21 C 84.267 85.21 92.046 85.099 101.206 84.879 C 110.353 84.658 118.344 84.548 125.182 84.548 C 125.844 87.857 125.844 91.386 125.182 95.135 C 116.139 96.018 109.742 97.01 105.993 98.113 C 102.243 99.216 100.368 101.752 100.368 105.722 C 100.368 107.266 100.699 109.201 101.361 111.523 C 102.022 113.833 102.905 116.751 104.008 120.28 L 156.282 271.809 L 197.638 175.863 L 181.757 129.875 C 179.111 121.934 176.845 115.699 174.964 111.17 C 173.096 106.655 171.06 103.406 168.854 101.421 C 166.649 99.436 163.841 98.053 160.429 97.275 C 157.003 96.509 152.312 95.797 146.356 95.135 C 145.915 91.606 145.915 88.077 146.356 84.548 C 154.076 84.548 161.906 84.658 169.847 84.879 C 177.787 85.099 185.507 85.21 193.006 85.21 C 199.623 85.21 207.674 85.099 217.158 84.879 C 226.643 84.658 235.024 84.548 242.303 84.548 C 242.965 87.857 242.965 91.386 242.303 95.135 C 231.495 96.018 223.945 97.01 219.651 98.113 C 215.343 99.216 213.188 101.863 213.188 106.053 C 213.188 109.141 214.291 113.883 216.497 120.28 L 266.786 272.471 L 320.715 125.573 C 322.479 121.162 323.862 117.523 324.861 114.655 C 325.847 111.788 326.339 109.252 326.339 107.046 C 326.339 102.855 324.134 100.047 319.722 98.62 C 315.311 97.18 307.701 96.018 296.893 95.135 C 296.232 91.386 296.232 87.857 296.893 84.548 C 299.981 84.548 304.503 84.599 310.458 84.702 C 316.414 84.819 322.42 84.938 328.479 85.055 C 334.551 85.159 339.132 85.21 342.22 85.21 C 349.058 85.21 355.344 85.099 361.079 84.879 C 366.813 84.658 372.989 84.548 379.606 84.548 C 380.268 88.077 380.268 91.606 379.606 95.135 C 373.21 95.797 367.967 96.569 363.88 97.451 C 359.806 98.333 356.336 99.928 353.469 102.237 C 350.602 104.56 347.895 108.208 345.352 113.178 C 342.822 118.134 339.904 124.912 336.596 133.514 L 264.47 316.805 C 262.264 317.467 259.338 318.018 255.692 318.459 C 252.059 318.901 249.141 319.231 246.935 319.452 L 204.586 196.706 L 153.966 316.143 C 151.54 316.805 148.562 317.357 145.033 317.798 C 141.504 318.239 138.526 318.57 136.1 318.79 Z" style="paint-order: fill; white-space: pre; text-decoration: underline solid rgba(0, 0, 0, 0.85); fill: rgb(0, 73, 199);">
      <title>W</title>
    </path>
    <path d="M 136.1 363.12 L 69.268 173.874 C 66.401 165.933 63.975 159.757 61.99 155.346 C 60.004 150.935 57.799 147.736 55.372 145.751 C 52.946 143.766 49.808 142.383 45.954 141.605 C 42.088 140.839 36.845 140.127 30.228 139.465 C 29.787 135.936 29.787 132.407 30.228 128.878 C 37.507 128.878 45.387 128.988 53.873 129.209 C 62.371 129.429 70.371 129.54 77.87 129.54 C 84.267 129.54 92.046 129.429 101.206 129.209 C 110.353 128.988 118.344 128.878 125.182 128.878 C 125.844 132.187 125.844 135.716 125.182 139.465 C 116.139 140.348 109.742 141.34 105.993 142.443 C 102.243 143.546 100.368 146.082 100.368 150.052 C 100.368 151.596 100.699 153.531 101.361 155.853 C 102.022 158.163 102.905 161.081 104.008 164.61 L 156.282 316.139 L 197.638 220.193 L 181.757 174.205 C 179.111 166.264 176.845 160.029 174.964 155.5 C 173.096 150.985 171.06 147.736 168.854 145.751 C 166.649 143.766 163.841 142.383 160.429 141.605 C 157.003 140.839 152.312 140.127 146.356 139.465 C 145.915 135.936 145.915 132.407 146.356 128.878 C 154.076 128.878 161.906 128.988 169.847 129.209 C 177.787 129.429 185.507 129.54 193.006 129.54 C 199.623 129.54 207.674 129.429 217.158 129.209 C 226.643 128.988 235.024 128.878 242.303 128.878 C 242.965 132.187 242.965 135.716 242.303 139.465 C 231.495 140.348 223.945 141.34 219.651 142.443 C 215.343 143.546 213.188 146.193 213.188 150.383 C 213.188 153.471 214.291 158.213 216.497 164.61 L 266.786 316.801 L 320.715 169.903 C 322.479 165.492 323.862 161.853 324.861 158.985 C 325.847 156.118 326.339 153.582 326.339 151.376 C 326.339 147.185 324.134 144.377 319.722 142.95 C 315.311 141.51 307.701 140.348 296.893 139.465 C 296.232 135.716 296.232 132.187 296.893 128.878 C 299.981 128.878 304.503 128.929 310.458 129.032 C 316.414 129.149 322.42 129.268 328.479 129.385 C 334.551 129.489 339.132 129.54 342.22 129.54 C 349.058 129.54 355.344 129.429 361.079 129.209 C 366.813 128.988 372.989 128.878 379.606 128.878 C 380.268 132.407 380.268 135.936 379.606 139.465 C 373.21 140.127 367.967 140.899 363.88 141.781 C 359.806 142.663 356.336 144.258 353.469 146.567 C 350.602 148.89 347.895 152.538 345.352 157.508 C 342.822 162.464 339.904 169.242 336.596 177.844 L 264.47 361.135 C 262.264 361.797 259.338 362.348 255.692 362.789 C 252.059 363.231 249.141 363.561 246.935 363.782 L 204.586 241.036 L 153.966 360.473 C 151.54 361.135 148.562 361.687 145.033 362.128 C 141.504 362.569 138.526 362.9 136.1 363.12 Z" style="paint-order: fill; white-space: pre; text-decoration: underline solid rgba(0, 0, 0, 0.85); fill: rgb(255, 255, 255);" transform="matrix(-1, 0, 0, -1, 409.999763, 492.660019)">
      <title>W</title>
    </path>
  </g>
</svg>